<svg id="Icon_Set" enable-background="new 0 0 256 256" height="512" viewBox="0 0 256 256" width="512" xmlns="http://www.w3.org/2000/svg"><path d="m245.813 154.645c-5.122 4.189-12.654 3.506-16.939-1.535l-84.018-98.766 18.803-15.377 83.719 98.414c4.401 5.178 3.696 12.961-1.565 17.264z" fill="#b76c6c"/><path d="m129.877 251.047h-99.167c-13.807 0-25-11.193-25-25v-99.167c0-13.807 11.193-25 25-25h99.167c13.807 0 25 11.193 25 25v99.167c0 13.807-11.193 25-25 25z" fill="#ffe2e2"/><path d="m195.067 28.969-69.842 57.118c-3.169 2.592-7.939.485-8.158-3.603l-1.298-24.221c-.085-1.592.594-3.129 1.827-4.138l58.75-48.047c2.138-1.748 5.288-1.432 7.036.705l12.39 15.15c1.749 2.137 1.433 5.287-.705 7.036z" fill="#87828e"/><path d="m45.709 251.048h-15c-13.81 0-25-11.19-25-25v-99.17c0-13.8 11.19-25 25-25h15c-13.81 0-25 11.2-25 25v99.17c0 13.81 11.19 25 25 25z" fill="#ffefee"/><path d="m154.88 126.878v99.17c0 13.81-11.2 25-25 25h-15c13.8 0 25-11.19 25-25v-99.17c0-13.8-11.2-25-25-25h15c13.799 0 25 11.2 25 25z" fill="#ffcfcf"/><path d="m135.609 77.598-10.38 8.49c-3.17 2.59-7.94.48-8.16-3.6l-1.3-24.22c-.09-1.6.59-3.13 1.83-4.14l14.63-11.96 1.67 31.13c.091 1.7.731 3.17 1.71 4.3z" fill="#a4a4a5"/><path d="m195.07 28.968-10.14 8.3c.39-1.61.05-3.36-1.08-4.74l-13.52-16.53c-.95-1.17-2.29-1.84-3.68-1.98l9.7-7.94c2.14-1.75 5.29-1.43 7.03.71l12.39 15.14c1.75 2.14 1.439 5.29-.7 7.04z" fill="#796e84"/><g fill="#5f266d"><path d="m250.426 134.786-73.207-86.054 20.38-16.667c1.861-1.521 3.018-3.677 3.258-6.069.24-2.393-.467-4.735-1.988-6.595l-12.39-15.15c-3.142-3.841-8.822-4.411-12.664-1.269l-58.752 48.048c-2.211 1.81-3.44 4.593-3.288 7.448l1.298 24.221c.393 7.36 8.998 11.138 14.685 6.485l24.464-20.008 73.602 86.525c3.175 3.729 7.742 5.656 12.335 5.656 13.708-.001 21.161-16.101 12.267-26.571zm-127.733-51.795c-.64.523-1.587.105-1.632-.72l-1.298-24.22c-.017-.318.12-.628.365-.829l58.752-48.047c.426-.349 1.056-.287 1.406.141l12.391 15.15c.35.428.288 1.055-.142 1.406zm120.583 68.561c-3.403 2.786-8.501 2.323-11.359-1.036l-73.501-86.406 12.609-10.312 73.306 86.17c2.925 3.442 2.51 8.664-1.055 11.584z"/><path d="m129.878 97.881h-99.167c-15.99 0-29 13.009-29 29v99.167c0 15.991 13.01 29 29 29h99.167c15.99 0 29-13.009 29-29v-99.167c0-15.991-13.01-29-29-29zm18.867 137.328c-9.47-2.884-10.006-2.691-10.155-3.691-2.791-19.003-.619-16.118-21.065-22.572-2.107-.664-4.354.504-5.019 2.61-.665 2.107.504 4.354 2.61 5.019 13.495 4.26 13.778 3.987 13.926 4.987l1.634 11.12c.503 3.426 2.969 6.292 6.282 7.301l6.563 1.999c-3.674 3.15-8.435 5.067-13.643 5.067h-99.167c-11.579 0-21-9.42-21-21v-49.865l11.31 3.57c.976.308.698.87 2.322 11.928.503 3.426 2.969 6.292 6.282 7.301 11.589 3.53 11.422 3.588 12.375 3.588 4.553 0 5.554-6.49 1.164-7.828-11.31-3.445-11.758-3.225-11.907-4.225-2.791-19.003-.619-16.118-21.065-22.572-.159-.05-.32-.07-.48-.1v-40.964c0-11.58 9.421-21 21-21h49.078l-13.708 33.411c-2.312 5.638 1.842 11.824 7.931 11.824h12.012c1.306 0 .956-.085-12.709 27.865-1.304 2.668.658 5.758 3.591 5.758 1.479 0 2.902-.825 3.597-2.244l13.222-27.043c2.785-5.7-1.369-12.335-7.7-12.335-12.04 0-12.989.297-12.54-.788l14.952-36.447h41.442c11.579 0 21 9.42 21 21-.002 107.267.804 102.299-2.135 108.326z"/><path d="m138.544 143.786c-2.209 0-4 1.791-4 4v2.762c0 2.209 1.791 4 4 4s4-1.791 4-4v-2.762c0-2.209-1.791-4-4-4z"/><path d="m127.878 116.214h-14.334c-2.209 0-4 1.791-4 4s1.791 4 4 4h14.334c3.676 0 6.666 2.991 6.666 6.667v1.905c0 2.209 1.791 4 4 4s4-1.791 4-4v-1.905c0-8.087-6.579-14.667-14.666-14.667z"/></g></svg>